<svg width="24" height="24" viewBox="0 0 24 24" fill="none" xmlns="http://www.w3.org/2000/svg">
<path d="M16.9916 6.72376C17.2596 6.63437 17.5522 6.65522 17.805 6.78138C18.058 6.9077 18.2506 7.12945 18.3402 7.39759C18.4297 7.6658 18.4098 7.95905 18.2835 8.21204L17.2171 10.3468C18.4087 11.119 19.4139 12.1459 20.1605 13.3536C20.7106 14.2436 21.1107 15.2152 21.346 16.2296C21.4808 16.8105 21.0127 17.3312 20.4164 17.3312H3.58335C2.98706 17.3312 2.51894 16.8105 2.65366 16.2296C2.88893 15.2153 3.28819 14.2436 3.83823 13.3536C4.58485 12.1458 5.59081 11.1189 6.78257 10.3468L5.71616 8.21204C5.58984 7.95902 5.56899 7.66584 5.65854 7.39759C5.74811 7.12942 5.94079 6.90775 6.1937 6.78138C6.44672 6.65501 6.73988 6.63424 7.00815 6.72376C7.27638 6.8133 7.49796 7.00597 7.62436 7.25892L8.69468 9.39954L8.97202 9.28919C10.9376 8.63619 13.0621 8.63619 15.0277 9.28919L15.3041 9.39954L16.3744 7.25892C16.5007 7.00587 16.7233 6.81333 16.9916 6.72376ZM7.57554 13.1701C6.90717 13.1702 6.36558 13.7116 6.36558 14.38C6.36558 15.0484 6.90717 15.5898 7.57554 15.59C8.24403 15.59 8.78647 15.0485 8.78647 14.38C8.78647 13.7115 8.24403 13.1701 7.57554 13.1701ZM16.4837 13.1701C15.8152 13.1701 15.2728 13.7115 15.2728 14.38C15.2728 15.0485 15.8152 15.59 16.4837 15.59C17.1521 15.5898 17.6937 15.0484 17.6937 14.38C17.6937 13.7116 17.1521 13.1702 16.4837 13.1701Z" fill="white"/>
</svg>
