<svg width="20" height="20" viewBox="0 0 20 20" fill="none" xmlns="http://www.w3.org/2000/svg">
<path d="M8.73421 0.524245C9.43332 -0.174749 10.5663 -0.174748 11.2655 0.524245L12.2518 1.5096C12.7206 1.97837 13.3564 2.24202 14.0194 2.24202H16.1121C17.1008 2.24202 17.902 3.04344 17.9022 4.03206V6.12483C17.9022 6.78787 18.1658 7.42454 18.6346 7.89339L19.4754 8.73421C20.1744 9.43332 20.1744 10.5663 19.4754 11.2655L17.9022 12.8387V15.9676C17.902 16.9562 17.1008 17.7576 16.1121 17.7576H14.0194C13.3564 17.7576 12.7206 18.0213 12.2518 18.4901L11.2655 19.4754C10.5663 20.1744 9.43332 20.1744 8.73421 19.4754L7.74788 18.4901C7.27905 18.0213 6.64329 17.7576 5.9803 17.7576H4.17757C3.18891 17.7576 2.38668 16.9562 2.38655 15.9676V14.1639C2.38654 13.5009 2.12296 12.8652 1.65413 12.3963L0.524245 11.2655C-0.174748 10.5663 -0.174749 9.43332 0.524245 8.73421L1.65413 7.60335C2.12297 7.13451 2.38655 6.4988 2.38655 5.83577V4.03206C2.38668 3.04344 3.18892 2.24202 4.17757 2.24202H5.9803C6.64329 2.24202 7.27905 1.97837 7.74788 1.5096L8.73421 0.524245ZM14.7918 7.09651C14.4795 6.78432 13.9734 6.78439 13.661 7.09651L9.33479 11.4227L6.96565 9.05354C6.65323 8.74112 6.14623 8.74112 5.83382 9.05354C5.52174 9.3659 5.52174 9.87205 5.83382 10.1844L8.76936 13.1199C9.08172 13.4319 9.5879 13.432 9.90022 13.1199L14.7918 8.22835C15.1042 7.91593 15.1042 7.40893 14.7918 7.09651Z" fill="#FC9F03"/>
</svg>
