<svg width="25" height="25" viewBox="0 0 25 25" fill="none" xmlns="http://www.w3.org/2000/svg">
<path fill-rule="evenodd" clip-rule="evenodd" d="M4.49995 5.51984C4.05812 5.51984 3.69995 5.87801 3.69995 6.31984C3.69995 6.76166 4.05812 7.11984 4.49995 7.11984H20.5C20.9418 7.11984 21.2999 6.76166 21.2999 6.31984C21.2999 5.87801 20.9418 5.51984 20.5 5.51984H4.49995ZM3.69995 12.3198C3.69995 11.878 4.05812 11.5198 4.49995 11.5198H20.5C20.9418 11.5198 21.2999 11.878 21.2999 12.3198C21.2999 12.7617 20.9418 13.1198 20.5 13.1198H4.49995C4.05812 13.1198 3.69995 12.7617 3.69995 12.3198ZM3.69995 18.3198C3.69995 17.878 4.05812 17.5198 4.49995 17.5198H20.5C20.9418 17.5198 21.2999 17.878 21.2999 18.3198C21.2999 18.7617 20.9418 19.1198 20.5 19.1198H4.49995C4.05812 19.1198 3.69995 18.7617 3.69995 18.3198Z" fill="#8C919E"/>
</svg>
