<svg width="25" height="25" viewBox="0 0 25 25" fill="none" xmlns="http://www.w3.org/2000/svg">
<path fill-rule="evenodd" clip-rule="evenodd" d="M13.3 20.5603C13.9799 20.2926 14.7087 19.6709 15.3707 18.5677C16.1856 17.2095 16.7643 15.3063 16.8791 13.1198H13.3V20.5603ZM11.7 20.5603V13.1198H8.12089C8.23567 15.3063 8.8144 17.2095 9.62935 18.5677C10.2913 19.6709 11.0201 20.2926 11.7 20.5603ZM13.3 11.5198H16.8791C16.7643 9.33331 16.1856 7.43019 15.3707 6.07195C14.7087 4.96878 13.9799 4.34704 13.3 4.07934V11.5198ZM11.7 4.07934V11.5198H8.12089C8.23567 9.33331 8.8144 7.43019 9.62935 6.07195C10.2913 4.96878 11.0201 4.34704 11.7 4.07934ZM16.5677 19.671C17.6458 18.0131 18.3583 15.7048 18.4811 13.1198H20.8624C20.5956 15.9437 18.9309 18.3606 16.5677 19.671ZM18.4811 11.5198H20.8624C20.5956 8.69597 18.9309 6.27908 16.5677 4.96864C17.6458 6.62653 18.3583 8.93485 18.4811 11.5198ZM8.43232 4.96864C7.35424 6.62653 6.64169 8.93485 6.51892 11.5198H4.1376C4.40439 8.69597 6.06913 6.27908 8.43232 4.96864ZM8.43232 19.671C6.06913 18.3606 4.40439 15.9437 4.1376 13.1198H6.51892C6.64169 15.7048 7.35424 18.0131 8.43232 19.671ZM12.5 2.31982C18.0228 2.31982 22.5 6.79698 22.5 12.3198C22.5 17.8427 18.0228 22.3198 12.5 22.3198C6.97715 22.3198 2.5 17.8427 2.5 12.3198C2.5 6.79698 6.97715 2.31982 12.5 2.31982Z" fill="#8C919E"/>
</svg>
